<svg xmlns="http://www.w3.org/2000/svg" width="16" height="16" viewBox="0 0 16 16">
<path d="M 2,0 C 0.892,0 0,0.892 0,2 v 9 c 0,1.108 0.892,2 2,2 h 8 V 11 H 2 V 2 h 12 v 8 h 2 V 2 C 16,0.892 15.108,0 14,0 Z m 6,3 -2,2 0.00195,0.00195 L 7,5 C 7.00196,5.5878937 7,6 7,6.5859375 L 6.7070312,6.2929688 C 6.5187601,6.0994361 6.2700017,6.0000157 6,6 5.0097656,6.0097656 6,6 5,6 v 0.8632812 c -0.040332,0.3116587 0.068172,0.6241499 0.2929688,0.84375 L 8,10.414062 10.707031,7.7070312 C 10.945163,7.4779976 11.05481,7.146133 11,6.8203125 V 6 C 10,6 11,6 10,6 9.7362287,6.00624 9.4758426,6.1027811 9.2929688,6.2929688 L 9,6.5859375 V 3 Z m 3,8 v 5 h 5 v -5 z m 1,1 h 1 v 1 h 1 v -1 h 1 v 2 h -1 v 1 h -1 v -1 h -1 z m -6,2 c -1.108,0 -2,0.892 -2,2 h 6 v -2 z" />
</svg>
